0
SECTION
2
ENTITIES
0
LINE
8
Sketch 1
10
73.2447
20
432.452
30
0
11
1073.22
21
425.888
31
0
0
LINE
8
Sketch 1
10
577
20
493
30
0
11
569
21
38
31
0
0
LINE
8
Sketch 1
10
569
20
38
30
0
11
459
21
32
31
0
0
LINE
8
Sketch 1
10
459
20
32
30
0
11
427
21
47
31
0
0
LINE
8
Sketch 1
10
427
20
47
30
0
11
509
21
205
31
0
0
LINE
8
Sketch 1
10
509
20
205
30
0
11
527
21
220
31
0
0
LINE
8
Sketch 1
10
527
20
220
30
0
11
572
21
229
31
0
0
LINE
8
Sketch 1
10
572
20
229
30
0
11
608
21
223
31
0
0
LINE
8
Sketch 1
10
608
20
223
30
0
11
649
21
199
31
0
0
LINE
8
Sketch 1
10
649
20
199
30
0
11
711
21
41
31
0
0
LINE
8
Sketch 1
10
711
20
41
30
0
11
676
21
30
31
0
0
LINE
8
Sketch 1
10
676
20
30
30
0
11
571
21
35
31
0
0
LINE
8
Sketch 1
10
571
20
35
30
0
11
572
21
231
31
0
0
LINE
8
Sketch 1
10
492
20
241
30
0
11
415
21
256
31
0
0
LINE
8
Sketch 1
10
415
20
256
30
0
11
375
21
261
31
0
0
LINE
8
Sketch 1
10
375
20
261
30
0
11
287
21
262
31
0
0
LINE
8
Sketch 1
10
287
20
262
30
0
11
207
21
268
31
0
0
LINE
8
Sketch 1
10
207
20
268
30
0
11
168
21
268
31
0
0
LINE
8
Sketch 1
10
168
20
268
30
0
11
123
21
286
31
0
0
LINE
8
Sketch 1
10
123
20
286
30
0
11
88
21
318
31
0
0
LINE
8
Sketch 1
10
88
20
318
30
0
11
70
21
336
31
0
0
LINE
8
Sketch 1
10
70
20
336
30
0
11
70
21
354
31
0
0
LINE
8
Sketch 1
10
70
20
354
30
0
11
67
21
398
31
0
0
LINE
8
Sketch 1
10
67
20
398
30
0
11
75
21
431
31
0
0
LINE
8
Sketch 1
10
75
20
431
30
0
11
207
21
445
31
0
0
LINE
8
Sketch 1
10
207
20
445
30
0
11
336
21
451
31
0
0
LINE
8
Sketch 1
10
336
20
451
30
0
11
480
21
452
31
0
0
LINE
8
Sketch 1
10
480
20
452
30
0
11
548
21
454
31
0
0
LINE
8
Sketch 1
10
548
20
454
30
0
11
559
21
421
31
0
0
LINE
8
Sketch 1
10
559
20
421
30
0
11
593
21
421
31
0
0
LINE
8
Sketch 1
10
593
20
421
30
0
11
614
21
457
31
0
0
LINE
8
Sketch 1
10
614
20
457
30
0
11
691
21
455
31
0
0
LINE
8
Sketch 1
10
691
20
455
30
0
11
818
21
450
31
0
0
LINE
8
Sketch 1
10
818
20
450
30
0
11
950
21
439
31
0
0
LINE
8
Sketch 1
10
950
20
439
30
0
11
1072
21
427
31
0
0
LINE
8
Sketch 1
10
1072
20
427
30
0
11
1078
21
410
31
0
0
LINE
8
Sketch 1
10
1078
20
410
30
0
11
1082
21
361
31
0
0
LINE
8
Sketch 1
10
1082
20
361
30
0
11
1079
21
345
31
0
0
LINE
8
Sketch 1
10
1079
20
345
30
0
11
1065
21
315
31
0
0
LINE
8
Sketch 1
10
1065
20
315
30
0
11
1039
21
291
31
0
0
LINE
8
Sketch 1
10
1039
20
291
30
0
11
1018
21
277
31
0
0
LINE
8
Sketch 1
10
1018
20
277
30
0
11
997
21
269
31
0
0
LINE
8
Sketch 1
10
997
20
269
30
0
11
975
21
267
31
0
0
LINE
8
Sketch 1
10
975
20
267
30
0
11
888
21
262
31
0
0
LINE
8
Sketch 1
10
888
20
262
30
0
11
764
21
264
31
0
0
LINE
8
Sketch 1
10
764
20
264
30
0
11
569
21
225
31
0
0
LINE
8
Sketch 1
10
569
20
225
30
0
11
507
21
238
31
0
0
LINE
8
Sketch 1
10
736
20
452
30
0
11
571
21
229
31
0
0
LINE
8
Sketch 1
10
571
20
229
30
0
11
417
21
459
31
0
0
LINE
8
Sketch 1
10
518
20
453
30
0
11
375
21
259
31
0
0
LINE
8
Sketch 1
10
505
20
454
30
0
11
164
21
266
31
0
0
LINE
8
Sketch 1
10
499
20
455
30
0
11
69
21
353
31
0
0
LINE
8
Sketch 1
10
637
20
456
30
0
11
772
21
263
31
0
0
LINE
8
Sketch 1
10
647
20
456
30
0
11
974
21
267
31
0
0
LINE
8
Sketch 1
10
1079
20
345
30
0
11
649
21
457
31
0
0
LINE
8
Sketch 1
10
561
20
451
30
0
11
560
21
420
31
0
0
LINE
8
Sketch 1
10
560
20
420
30
0
11
576
21
420
31
0
0
LINE
8
Sketch 1
10
576
20
451
30
0
11
561
21
451
31
0
0
LINE
8
Sketch 1
10
577
20
451
30
0
11
592
21
451
31
0
0
LINE
8
Sketch 1
10
592
20
451
30
0
11
592
21
421
31
0
0
LINE
8
Sketch 1
10
592
20
421
30
0
11
576
21
420
31
0
0
LINE
8
Sketch 1
10
570
20
452
30
0
11
570
21
466
31
0
0
LINE
8
Sketch 1
10
584
20
451
30
0
11
584
21
465
31
0
0
LINE
8
Sketch 1
10
545
20
456
30
0
11
571
21
455
31
0
0
LINE
8
Sketch 1
10
581
20
455
30
0
11
613
21
455
31
0
0
LINE
8
136
10
572.578
20
-73.4801
30
0
11
579.142
21
926.498
31
0
0
LINE
8
Sketch 31
10
1078.51
20
425.853
30
0
11
78.5317
21
432.417
31
0
0
LINE
8
Sketch 31
10
575.593
20
493.009
30
0
11
577.619
21
37.9434
31
0
0
LINE
8
Sketch 31
10
577.619
20
37.9434
30
0
11
687.531
21
30.4998
31
0
0
LINE
8
Sketch 31
10
687.531
20
30.4998
30
0
11
719.725
21
45.0784
31
0
0
LINE
8
Sketch 31
10
719.725
20
45.0784
30
0
11
639.806
21
204.141
31
0
0
LINE
8
Sketch 31
10
639.806
20
204.141
30
0
11
622.005
21
219.376
31
0
0
LINE
8
Sketch 31
10
622.005
20
219.376
30
0
11
577.127
21
228.966
31
0
0
LINE
8
Sketch 31
10
577.127
20
228.966
30
0
11
541.051
21
223.439
31
0
0
LINE
8
Sketch 31
10
541.051
20
223.439
30
0
11
499.74
21
199.98
31
0
0
LINE
8
Sketch 31
10
499.74
20
199.98
30
0
11
435.671
21
42.8074
31
0
0
LINE
8
Sketch 31
10
435.671
20
42.8074
30
0
11
470.523
21
31.3489
31
0
0
LINE
8
Sketch 31
10
470.523
20
31.3489
30
0
11
575.58
21
34.9699
31
0
0
LINE
8
Sketch 31
10
575.58
20
34.9699
30
0
11
577.153
21
230.966
31
0
0
LINE
8
Sketch 31
10
657.277
20
239.915
30
0
11
734.468
21
253.903
31
0
0
LINE
8
Sketch 31
10
734.468
20
253.903
30
0
11
774.53
21
258.377
31
0
0
LINE
8
Sketch 31
10
774.53
20
258.377
30
0
11
862.535
21
258.222
31
0
0
LINE
8
Sketch 31
10
862.535
20
258.222
30
0
11
942.607
21
263.171
31
0
0
LINE
8
Sketch 31
10
942.607
20
263.171
30
0
11
981.604
21
262.659
31
0
0
LINE
8
Sketch 31
10
981.604
20
262.659
30
0
11
1026.84
21
280.067
31
0
0
LINE
8
Sketch 31
10
1026.84
20
280.067
30
0
11
1062.25
21
311.604
31
0
0
LINE
8
Sketch 31
10
1062.25
20
311.604
30
0
11
1080.49
21
329.367
31
0
0
LINE
8
Sketch 31
10
1080.49
20
329.367
30
0
11
1080.72
21
347.365
31
0
0
LINE
8
Sketch 31
10
1080.72
20
347.365
30
0
11
1084.3
21
391.322
31
0
0
LINE
8
Sketch 31
10
1084.3
20
391.322
30
0
11
1076.74
21
424.424
31
0
0
LINE
8
Sketch 31
10
1076.74
20
424.424
30
0
11
944.931
21
440.156
31
0
0
LINE
8
Sketch 31
10
944.931
20
440.156
30
0
11
816.021
21
447.849
31
0
0
LINE
8
Sketch 31
10
816.021
20
447.849
30
0
11
672.047
21
450.739
31
0
0
LINE
8
Sketch 31
10
672.047
20
450.739
30
0
11
604.079
21
453.632
31
0
0
LINE
8
Sketch 31
10
604.079
20
453.632
30
0
11
592.646
21
420.779
31
0
0
LINE
8
Sketch 31
10
592.646
20
420.779
30
0
11
558.649
21
421.225
31
0
0
LINE
8
Sketch 31
10
558.649
20
421.225
30
0
11
538.124
21
457.498
31
0
0
LINE
8
Sketch 31
10
538.124
20
457.498
30
0
11
461.104
21
456.509
31
0
0
LINE
8
Sketch 31
10
461.104
20
456.509
30
0
11
334.049
21
453.177
31
0
0
LINE
8
Sketch 31
10
334.049
20
453.177
30
0
11
201.916
21
443.911
31
0
0
LINE
8
Sketch 31
10
201.916
20
443.911
30
0
11
79.7693
21
433.514
31
0
0
LINE
8
Sketch 31
10
79.7693
20
433.514
30
0
11
73.5466
21
416.594
31
0
0
LINE
8
Sketch 31
10
73.5466
20
416.594
30
0
11
68.9037
21
367.651
31
0
0
LINE
8
Sketch 31
10
68.9037
20
367.651
30
0
11
71.6934
21
351.613
31
0
0
LINE
8
Sketch 31
10
71.6934
20
351.613
30
0
11
85.2983
21
321.431
31
0
0
LINE
8
Sketch 31
10
85.2983
20
321.431
30
0
11
110.981
21
297.092
31
0
0
LINE
8
Sketch 31
10
110.981
20
297.092
30
0
11
131.795
21
282.818
31
0
0
LINE
8
Sketch 31
10
131.795
20
282.818
30
0
11
152.689
21
274.543
31
0
0
LINE
8
Sketch 31
10
152.689
20
274.543
30
0
11
174.66
21
272.254
31
0
0
LINE
8
Sketch 31
10
174.66
20
272.254
30
0
11
261.587
21
266.112
31
0
0
LINE
8
Sketch 31
10
261.587
20
266.112
30
0
11
385.603
21
266.484
31
0
0
LINE
8
Sketch 31
10
385.603
20
266.484
30
0
11
580.074
21
224.927
31
0
0
LINE
8
Sketch 31
10
580.074
20
224.927
30
0
11
642.239
21
237.112
31
0
0
LINE
8
Sketch 31
10
416.069
20
454.1
30
0
11
578.127
21
228.953
31
0
0
LINE
8
Sketch 31
10
578.127
20
228.953
30
0
11
735.133
21
456.912
31
0
0
LINE
8
Sketch 31
10
634.063
20
452.238
30
0
11
774.504
21
256.377
31
0
0
LINE
8
Sketch 31
10
647.075
20
453.067
30
0
11
985.577
21
260.607
31
0
0
LINE
8
Sketch 31
10
653.088
20
453.988
30
0
11
1081.71
21
346.352
31
0
0
LINE
8
Sketch 31
10
515.113
20
456.8
30
0
11
377.59
21
265.589
31
0
0
LINE
8
Sketch 31
10
505.113
20
456.931
30
0
11
175.66
21
272.241
31
0
0
LINE
8
Sketch 31
10
71.6934
20
351.613
30
0
11
503.127
21
457.958
31
0
0
LINE
8
Sketch 31
10
591.04
20
450.803
30
0
11
591.633
21
419.792
31
0
0
LINE
8
Sketch 31
10
591.633
20
419.792
30
0
11
575.635
21
420.002
31
0
0
LINE
8
Sketch 31
10
576.042
20
451
30
0
11
591.04
21
450.803
31
0
0
LINE
8
Sketch 31
10
575.042
20
451.013
30
0
11
560.043
21
451.21
31
0
0
LINE
8
Sketch 31
10
560.043
20
451.21
30
0
11
559.649
21
421.212
31
0
0
LINE
8
Sketch 31
10
559.649
20
421.212
30
0
11
575.635
21
420.002
31
0
0
LINE
8
Sketch 31
10
582.054
20
451.921
30
0
11
582.238
21
465.92
31
0
0
LINE
8
Sketch 31
10
568.042
20
451.105
30
0
11
568.226
21
465.104
31
0
0
LINE
8
Sketch 31
10
607.105
20
455.592
30
0
11
581.094
21
454.934
31
0
0
LINE
8
Sketch 31
10
571.095
20
455.065
30
0
11
539.097
21
455.485
31
0
0
LINE
8
Sketch 9
10
-100.06
20
132.039
30
10
11
-100.06
21
-127.961
31
10
0
LINE
8
Sketch 9
10
-100.06
20
-127.961
30
10
11
99.9401
21
-127.961
31
10
0
LINE
8
Sketch 9
10
99.9401
20
-127.961
30
10
11
99.9401
21
132.039
31
10
0
LINE
8
Sketch 9
10
99.9401
20
132.039
30
10
11
-100.06
21
132.039
31
10
0
LINE
8
Sketch 10
10
60.8612
20
472.58
30
10
11
60.8612
21
212.58
31
10
0
LINE
8
Sketch 10
10
60.8612
20
212.58
30
10
11
260.861
21
212.58
31
10
0
LINE
8
Sketch 10
10
260.861
20
212.58
30
10
11
260.861
21
472.58
31
10
0
LINE
8
Sketch 10
10
260.861
20
472.58
30
10
11
60.8612
21
472.58
31
10
0
LINE
8
Sketch 11
10
260.861
20
472.58
30
10
11
260.861
21
212.58
31
10
0
LINE
8
Sketch 11
10
260.861
20
212.58
30
10
11
460.861
21
212.58
31
10
0
LINE
8
Sketch 11
10
460.861
20
212.58
30
10
11
460.861
21
472.58
31
10
0
LINE
8
Sketch 11
10
460.861
20
472.58
30
10
11
260.861
21
472.58
31
10
0
LINE
8
Sketch 12
10
460.861
20
472.58
30
10
11
460.861
21
212.58
31
10
0
LINE
8
Sketch 12
10
460.861
20
212.58
30
10
11
660.861
21
212.58
31
10
0
LINE
8
Sketch 12
10
660.861
20
212.58
30
10
11
660.861
21
472.58
31
10
0
LINE
8
Sketch 12
10
660.861
20
472.58
30
10
11
460.861
21
472.58
31
10
0
LINE
8
Sketch 13
10
660.861
20
472.58
30
10
11
660.861
21
212.58
31
10
0
LINE
8
Sketch 13
10
660.861
20
212.58
30
10
11
860.861
21
212.58
31
10
0
LINE
8
Sketch 13
10
860.861
20
212.58
30
10
11
860.861
21
472.58
31
10
0
LINE
8
Sketch 13
10
860.861
20
472.58
30
10
11
660.861
21
472.58
31
10
0
LINE
8
Sketch 14
10
860.861
20
472.58
30
10
11
860.861
21
212.58
31
10
0
LINE
8
Sketch 14
10
860.861
20
212.58
30
10
11
1060.86
21
212.58
31
10
0
LINE
8
Sketch 14
10
1060.86
20
212.58
30
10
11
1060.86
21
472.58
31
10
0
LINE
8
Sketch 14
10
1060.86
20
472.58
30
10
11
860.861
21
472.58
31
10
0
LINE
8
Sketch 15
10
1060.86
20
472.58
30
10
11
1060.86
21
212.58
31
10
0
LINE
8
Sketch 15
10
1060.86
20
212.58
30
10
11
1260.86
21
212.58
31
10
0
LINE
8
Sketch 15
10
1260.86
20
212.58
30
10
11
1260.86
21
472.58
31
10
0
LINE
8
Sketch 15
10
1260.86
20
472.58
30
10
11
1060.86
21
472.58
31
10
0
LINE
8
Sketch 16
10
380.861
20
212.58
30
10
11
380.861
21
-47.42
31
10
0
LINE
8
Sketch 16
10
380.861
20
-47.42
30
10
11
580.861
21
-47.42
31
10
0
LINE
8
Sketch 16
10
580.861
20
-47.42
30
10
11
580.861
21
212.58
31
10
0
LINE
8
Sketch 16
10
580.861
20
212.58
30
10
11
380.861
21
212.58
31
10
0
LINE
8
Sketch 17
10
580.861
20
212.58
30
10
11
580.861
21
-47.42
31
10
0
LINE
8
Sketch 17
10
580.861
20
-47.42
30
10
11
780.861
21
-47.42
31
10
0
LINE
8
Sketch 17
10
780.861
20
-47.42
30
10
11
780.861
21
212.58
31
10
0
LINE
8
Sketch 17
10
780.861
20
212.58
30
10
11
580.861
21
212.58
31
10
0
ENDSEC
0
EOF